<svg xmlns="http://www.w3.org/2000/svg" viewBox="0 0 612 338.77"><defs><style>.cls-1{fill:#231f20;}</style></defs><g id="Layer_2" data-name="Layer 2"><g id="Layer_2-2" data-name="Layer 2"><path class="cls-1" d="M608.16,256.28,529.54,44.36C523.16,18.89,500.39,0,473.36,0a56.71,56.71,0,0,0-22.49,4.62H161.13A56.71,56.71,0,0,0,138.64,0c-27,0-49.8,18.89-56.18,44.36L3.84,256.27a61.13,61.13,0,1,0,114.58,42.67l39.44-106.73a57.72,57.72,0,0,0,48.4,26.53c32,0,58-26.42,58-58.88s-26-58.88-58-58.88-58,26.41-58,58.88A59.32,59.32,0,0,0,154,185.27a3.19,3.19,0,0,0-.91,1.3l-40.7,110.12a54.68,54.68,0,0,1-70.47,32.1,54.77,54.77,0,0,1-32-70.27L81.16,66.41c3.66,28.92,28,51.35,57.48,51.35,32,0,58-26.41,58-58.88a59.12,59.12,0,0,0-24.2-47.81H439.59a59.12,59.12,0,0,0-24.2,47.81c0,32.47,26,58.88,58,58.88,29.45,0,53.82-22.43,57.48-51.35l71.27,192.11A54.68,54.68,0,0,1,499.64,296.7l-40.7-110.13a3.19,3.19,0,0,0-.91-1.3,59.32,59.32,0,0,0,5.68-25.41c0-32.47-26-58.88-58-58.88s-58,26.41-58,58.88,26,58.88,58,58.88a57.75,57.75,0,0,0,48.4-26.53L493.59,299a61.13,61.13,0,0,0,114.57-42.67ZM206.26,110c27,0,48.93,22.36,48.93,49.85s-21.95,49.84-48.93,49.84-48.94-22.36-48.94-49.84S179.27,110,206.26,110ZM187.57,58.88c0,27.48-21.95,49.84-48.93,49.84S89.71,86.36,89.71,58.88,111.66,9,138.64,9,187.57,31.4,187.57,58.88Zm285.79,49.84c-27,0-48.93-22.36-48.93-49.84S446.38,9,473.36,9s48.93,22.36,48.93,49.84S500.34,108.72,473.36,108.72Zm-67.62,101c-27,0-48.93-22.36-48.93-49.84S378.76,110,405.74,110s48.93,22.36,48.93,49.85S432.72,209.7,405.74,209.7Z"/><polygon class="cls-1" points="347.77 163.09 347.77 156.63 264.22 156.63 264.22 159.86 264.22 163.09 347.77 163.09"/></g></g></svg>